<svg viewBox="0 0 280 170"><g><g><g><path d="M140.035,167.528C135.978,167.527 131.95,166.852 128.115,165.528L16.285,126.778C7.9,123.879 2.241,115.934 2.241,107.063C2.241,98.191 7.9,90.247 16.285,87.348L128.085,48.588C135.804,45.928 144.196,45.928 151.915,48.588L263.715,87.348C272.1,90.247 277.759,98.191 277.759,107.063C277.759,115.934 272.1,123.879 263.715,126.778L151.915,165.538C148.093,166.855 144.078,167.528 140.035,167.528ZM133.595,64.388L21.795,103.148C20.128,103.721 19.001,105.3 19.001,107.063C19.001,108.826 20.128,110.404 21.795,110.978L133.595,149.728C137.767,151.168 142.303,151.168 146.475,149.728L258.285,110.978C259.952,110.404 261.079,108.826 261.079,107.063C261.079,105.3 259.952,103.721 258.285,103.148L146.475,64.388C142.302,62.953 137.768,62.953 133.595,64.388Z" style="fill: rgb(18, 23, 33); fill-rule: nonzero;"></path><path d="M130.855,56.488L19.055,95.258C7.845,99.138 7.845,115.008 19.055,118.888L130.855,157.648C136.8,159.711 143.27,159.711 149.215,157.648L261.015,118.888C272.285,114.998 272.285,99.128 261.015,95.258L149.215,56.488C143.27,54.425 136.8,54.425 130.855,56.488Z" style="fill: rgb(18, 23, 33); fill-rule: nonzero; stroke: rgb(52, 26, 107); stroke-width: 6px;"></path></g><path d="M50.32,111.166C56.502,111.166 63.253,107.118 64.353,99.022L67.577,75.604L52.558,75.604L51.078,86.486L56.616,86.486L54.871,99.022C54.264,103.374 48.461,103.766 49.106,99.022L49.713,94.495L40.231,94.495L39.624,99.022C38.524,107.118 44.137,111.166 50.32,111.166Z" style="fill: rgb(18, 0, 71); fill-rule: nonzero;"></path><path d="M87.262,110.426L96.744,110.426L88.931,75.604L79.449,75.604L62.002,110.426L71.484,110.426L73.342,106.726L86.466,106.726L87.262,110.426ZM77.666,98.064L82.407,88.662L84.493,98.064L77.666,98.064Z" style="fill: rgb(18, 0, 71); fill-rule: nonzero;"></path><path d="M104.482,110.426L117.795,110.426L119.312,99.544L109.147,99.544C106.871,99.544 106.113,96.192 106.568,92.841C107.023,89.663 108.616,86.486 110.968,86.486L121.133,86.486L122.612,75.604L109.299,75.604C102.434,75.604 97.427,83.526 96.138,93.015C94.886,101.981 98.034,110.426 104.482,110.426Z" style="fill: rgb(18, 0, 71); fill-rule: nonzero;"></path><path d="M154.586,75.604L142.259,75.604L133.649,87.531L132.739,87.531L134.37,75.604L124.888,75.604L120.071,110.426L129.553,110.426L131.222,98.412L132.018,98.412L137.025,110.426L149.238,110.426L141.5,92.231L154.586,75.604Z" style="fill: rgb(18, 0, 71); fill-rule: nonzero;"></path><path d="M150.527,110.426L160.01,110.426L161.792,97.759L171.274,97.759C176.167,97.759 180.794,92.754 181.629,86.616C182.425,80.871 179.543,75.604 174.764,75.604L155.344,75.604L150.527,110.426ZM162.93,89.359L163.689,84.005L170.705,84.005C171.692,84.005 172.336,85.18 172.147,86.66C171.957,88.14 170.895,89.359 169.947,89.359L162.93,89.359Z" style="fill: rgb(18, 0, 71); fill-rule: nonzero;"></path><path d="M195.132,110.904C203.779,110.904 211.934,102.808 213.299,92.884C214.665,82.96 208.748,74.864 200.1,74.864C191.452,74.864 183.26,82.96 181.894,92.884C180.529,102.808 186.484,110.904 195.132,110.904ZM196.649,99.849C193.311,99.849 190.997,96.715 191.528,92.884C192.059,89.054 195.245,85.92 198.583,85.92C201.921,85.92 204.197,89.054 203.666,92.884C203.135,96.715 199.986,99.849 196.649,99.849Z" style="fill: rgb(18, 0, 71); fill-rule: nonzero;"></path><path d="M219.14,110.426L228.623,110.426L231.847,86.486L240.115,86.486L241.594,75.604L215.689,75.604L214.21,86.486L222.478,86.486L219.14,110.426Z" style="fill: rgb(18, 0, 71); fill-rule: nonzero;"></path><g><path d="M53.833,107.166C59.738,107.166 66.186,103.797 67.236,97.059L70.315,77.57L55.97,77.57L54.558,86.626L59.846,86.626L58.18,97.059C57.6,100.681 52.058,101.007 52.674,97.059L53.253,93.291L44.197,93.291L43.618,97.059C42.567,103.797 47.928,107.166 53.833,107.166Z" style="fill: white; fill-rule: nonzero;"></path><path d="M89.116,106.55L98.172,106.55L90.71,77.57L81.654,77.57L64.99,106.55L74.046,106.55L75.821,103.471L88.355,103.471L89.116,106.55ZM79.951,96.262L84.479,88.437L86.472,96.262L79.951,96.262Z" style="fill: rgb(224, 214, 255); fill-rule: nonzero;"></path><path d="M105.562,106.55L118.277,106.55L119.726,97.494L110.018,97.494C107.844,97.494 107.12,94.704 107.554,91.915C107.989,89.271 109.511,86.626 111.757,86.626L121.465,86.626L122.878,77.57L110.163,77.57C103.606,77.57 98.824,84.163 97.593,92.06C96.397,99.522 99.404,106.55 105.562,106.55Z" style="fill: rgb(195, 175, 255); fill-rule: nonzero;"></path><path d="M153.415,77.57L141.642,77.57L133.419,87.496L132.55,87.496L134.107,77.57L125.051,77.57L120.451,106.55L129.507,106.55L131.101,96.552L131.861,96.552L136.643,106.55L148.307,106.55L140.918,91.408L153.415,77.57Z" style="fill: rgb(164, 134, 255); fill-rule: nonzero;"></path><path d="M149.539,106.55L158.595,106.55L160.298,96.008L169.354,96.008C174.027,96.008 178.446,91.842 179.243,86.735C180.004,81.953 177.251,77.57 172.687,77.57L154.14,77.57L149.539,106.55ZM161.385,89.017L162.109,84.561L168.811,84.561C169.753,84.561 170.368,85.539 170.187,86.771C170.006,88.003 168.992,89.017 168.086,89.017L161.385,89.017Z" style="fill: rgb(144, 107, 255); fill-rule: nonzero;"></path><path d="M192.139,106.948C200.399,106.948 208.187,100.21 209.491,91.951C210.795,83.692 205.144,76.954 196.885,76.954C188.626,76.954 180.801,83.692 179.497,91.951C178.193,100.21 183.88,106.948 192.139,106.948ZM193.588,97.747C190.401,97.747 188.191,95.139 188.698,91.951C189.205,88.763 192.248,86.155 195.436,86.155C198.624,86.155 200.797,88.763 200.29,91.951C199.783,95.139 196.776,97.747 193.588,97.747Z" style="fill: rgb(118, 72, 255); fill-rule: nonzero;"></path><path d="M215.07,106.55L224.126,106.55L227.205,86.626L235.102,86.626L236.515,77.57L211.773,77.57L210.361,86.626L218.258,86.626L215.07,106.55Z" style="fill: rgb(109, 60, 255); fill-rule: nonzero;"></path></g></g><g><circle cx="231.422" cy="160.864" r="6.168" style="fill: rgb(136, 96, 255);"></circle><ellipse cx="250.101" cy="160.864" rx="5.783" ry="5.963" style="fill: rgb(122, 77, 255);"></ellipse><circle cx="268.009" cy="160.864" r="5.397" style="fill: rgb(109, 60, 255);"></circle></g><g><circle cx="49.218" cy="160.864" r="6.168" style="fill: rgb(136, 96, 255);"></circle><circle cx="29.768" cy="160.864" r="5.781" style="fill: rgb(122, 77, 255);"></circle><circle cx="11.089" cy="160.864" r="5.397" style="fill: rgb(109, 60, 255);"></circle></g><path d="M154.65,23.103L154.65,47.749L140.209,55.451L125.768,47.749L125.768,23.103L140.209,15.401L154.65,23.103Z" style="fill: rgb(193, 162, 255); fill-rule: nonzero;"></path><g><path d="M151.761,25.61L160.473,24.061L165.105,19.196C164.957,18.888 164.745,18.612 164.451,18.416L141.218,2.798C140.893,2.581 140.518,2.472 140.144,2.472L138.208,14.219L140.144,19.414L144.177,23.899L151.761,25.61Z" style="fill: rgb(188, 174, 255); fill-rule: nonzero;"></path><path d="M128.528,25.61L123.203,20.188L115.183,19.196C115.06,19.454 114.975,19.733 114.975,20.027L114.975,51.004C114.975,51.299 115.06,51.578 115.183,51.835L124.171,50.682L128.528,45.421L131.109,34.871L128.528,25.61Z" style="fill: rgb(180, 164, 255); fill-rule: nonzero;"></path><path d="M151.761,45.421L144.984,46.649L140.144,51.617L138.208,59.685L140.144,68.559C140.518,68.559 140.893,68.451 141.218,68.233L164.451,52.615C164.745,52.42 164.957,52.144 165.105,51.835L159.505,46.487L151.761,45.421Z" style="fill: rgb(135, 104, 255); fill-rule: nonzero;"></path></g><path d="M140.144,19.414L140.144,2.472C139.77,2.472 139.395,2.581 139.07,2.798L115.837,18.416C115.544,18.612 115.331,18.888 115.183,19.196L128.528,25.61L140.144,19.414Z" style="fill: rgb(228, 223, 255); fill-rule: nonzero;"></path><path d="M151.761,45.421L165.105,51.835C165.229,51.578 165.314,51.299 165.314,51.004L165.314,20.027C165.314,19.733 165.229,19.454 165.105,19.196L151.761,25.61L151.761,45.421Z" style="fill: rgb(157, 127, 255); fill-rule: nonzero;"></path><path d="M128.528,45.421L115.183,51.835C115.331,52.144 115.544,52.42 115.837,52.616L139.07,68.233C139.396,68.451 139.77,68.559 140.144,68.559L140.144,51.617L128.528,45.421Z" style="fill: rgb(157, 129, 255); fill-rule: nonzero;"></path><path d="M151.761,25.603L151.761,45.428L140.144,51.624L128.528,45.428L128.528,25.603L140.144,19.407L151.761,25.603Z" style="fill: rgb(200, 192, 255); fill-rule: nonzero;"></path><path d="M164.953,6.472L167.718,13.942L175.188,16.706L167.718,19.471L164.953,26.941L162.189,19.471L154.719,16.706L162.189,13.942L164.953,6.472Z" style="fill: white;"></path><path d="M46.567,63.312L49.331,70.782L56.801,73.546L49.331,76.31L46.567,83.781L43.803,76.31L36.333,73.546L43.803,70.782L46.567,63.312Z" style="fill: white;"></path><path d="M235.36,128.532L238.124,136.002L245.594,138.766L238.124,141.53L235.36,149L232.596,141.53L225.126,138.766L232.596,136.002L235.36,128.532Z" style="fill: white;"></path></g></svg>